<svg xmlns="http://www.w3.org/2000/svg" width="220" height="290" viewBox="0 0 220 290"><g stroke="#a394b8" stroke-width="3" stroke-linecap="round" fill="none"><path d="M61 139C40 181 82 202 61 239S66 274 78 274"/><path d="M93 149C72 181 118 211 89 252" stroke-width="9" stroke="#d5c4de"/><path d="M128 146C146 179 114 192 135 228S136 272 126 277"/><path d="M155 135C178 172 142 187 162 235" stroke="#c7b2d4" stroke-width="7"/><path d="M27 128C22 29 83 15 113 21C164 18 204 64 193 128Q179 150 166 133Q147 157 130 140Q113 165 92 143Q70 160 57 140Q34 151 27 128Z" fill="#d8c6dd"/><path d="M40 103C62 39 148 31 180 108" stroke="#eadddf" stroke-width="20" opacity=".55"/><path d="M48 126q62-29 124 0" stroke="#ede3e6" stroke-width="10"/><path d="M86 110v6M133 108v6" stroke="#6f7285" stroke-width="5"/><path d="M102 126q8 6 16-1" stroke="#8f839a" stroke-width="2"/></g></svg>
